<?xml version="1.0" standalone="no"?>
<!DOCTYPE svg PUBLIC "-//W3C//DTD SVG 20010904//EN"
 "http://www.w3.org/TR/2001/REC-SVG-20010904/DTD/svg10.dtd">
<svg version="1.0" xmlns="http://www.w3.org/2000/svg"
 width="700.000000pt" height="700.000000pt" viewBox="0 0 700.000000 700.000000"
 preserveAspectRatio="xMidYMid meet">
<metadata>
Created by potrace 1.14, written by Peter Selinger 2001-2017
</metadata>
<g transform="translate(0.000000,700.000000) scale(0.100000,-0.100000)"
fill="#000000" stroke="none">
<path d="M2985 4789 l-509 -890 420 -420 419 -419 537 537 537 538 -442 773
c-243 424 -444 772 -447 772 -3 0 -235 -401 -515 -891z"/>
<path d="M4520 2994 c-179 -179 -524 -522 -768 -761 l-443 -437 -647 647 -647
647 -558 -975 c-306 -536 -557 -977 -557 -980 0 -3 1170 -5 2601 -5 1644 0
2599 4 2597 10 -7 21 -1243 2180 -1248 2180 -3 0 -152 -147 -330 -326z"/>
</g>
</svg>
